<svg xmlns="http://www.w3.org/2000/svg" width="44" height="44" viewBox="0 0 44 44">
    <g fill="none" fill-rule="evenodd">
        <g>
            <g transform="translate(6 6)">
                <path d="M0 0H32V32H0z"/>
                <path fill="#00256C" fill-rule="nonzero" d="M7 21v-5.297C7 10.905 11.056 7 16 7c1.462 0 2.846.341 4.07.946-.571.415-1.052.947-1.406 1.562C17.844 9.18 16.943 9 16 9c-3.775 0-6.868 2.902-6.995 6.474L9 15.703v1.275c.003 2.671.002 4.012 0 4.022 0 1.288-.324 1.955-.97 2h15.968c-.665-.004-.998-.67-.998-2v-4c.71 0 1.387-.148 2-.416-.003 2.394-.002 3.865 0 4.416.182 1.33.515 1.996.998 2H26c.552 0 1 .448 1 1s-.448 1-1 1H6c-.552 0-1-.448-1-1s.448-1 1-1h.03c.646-.045.97-.712.97-2z"/>
                <circle cx="16" cy="7" r="2" fill="#00256C"/>
                <path fill="#00256C" d="M13.591 23.833c.296 1.44.87 2.5 2.4 2.5 1.532 0 2.105-1.06 2.4-2.5h-4.8zM12 23.748V23h8v.748C20 26.093 18.206 28 16 28s-4-1.907-4-4.252z"/>
            </g>
            <circle cx="29" cy="18" r="3" fill="#D0021B"/>
        </g>
    </g>
</svg>
